# xmcd
#
# Track frame offsets:
#	150
#	22860
#	45270
#	64442
#	82950
#	107855
#	129745
#	146827
#	167092
#	190217
#	207400
#	235240
#	254582
#
# Disc length: 3657 seconds
#
# Revision: 1
# Processed by: cddbd v1.5.1PL0 Copyright (c) Steve Scherf et al.
# Submitted via: audiograbber 1.83.01
#
DISCID=ba0e470d
DTITLE=Lithium X-Mas - Helldorado
DYEAR=1993
DGENRE=Rock
TTITLE0=Powerdol
TTITLE1=Boston Strong Girl
TTITLE2=Blue Smoke
TTITLE3=Second Coming
TTITLE4=Hip Death Goddess
TTITLE5=Psychic Drive-In
TTITLE6=Crack Herman
TTITLE7=Hellevator
TTITLE8=Flameout
TTITLE9=Beverly Heaven
TTITLE10=Totalled!
TTITLE11=Approx. in Flesh
TTITLE12=Theme
EXTD=
EXTT0=
EXTT1=
EXTT2=
EXTT3=
EXTT4=
EXTT5=
EXTT6=
EXTT7=
EXTT8=
EXTT9=
EXTT10=
EXTT11=
EXTT12=
PLAYORDER=
